<svg width="1141" height="360" viewBox="0 0 1141 360" fill="none" xmlns="http://www.w3.org/2000/svg">
<path d="M120.393 22.0021C112.037 8.28687 99.2679 1.03512 86.6562 0.0892392C69.6303 -1.17194 51.9739 10.9669 52.7621 34.4562C53.235 40.7621 55.2844 46.2798 58.595 51.1668H58.2797C27.6962 51.1668 0.580984 76.2327 0.896277 109.023C1.21157 160.101 59.6986 195.256 93.1197 193.207C145.458 190.054 167.529 141.656 164.691 96.4115C179.352 92.155 195.905 81.5927 195.905 63.9362C195.905 49.9056 174.623 27.8351 160.435 18.8492C147.981 10.8092 132.531 13.3316 120.393 22.0021Z" fill="#1D2B36"/>
<path d="M181.71 64.7244C148.919 64.7244 115.971 109.339 134.1 139.922C144.19 156.475 172.093 182.802 196.213 180.753C219.23 178.703 234.837 160.416 244.453 145.282C248.552 137.873 249.656 126.68 243.192 119.743C237.044 112.807 235.783 111.546 234.521 110.442C227.27 97.515 218.126 81.5927 200.785 69.9268C195.267 66.4586 188.804 64.8821 181.71 64.7244Z" fill="#1D2B36"/>
<path d="M192.648 123.842C183.189 152.061 230.798 180.753 251.292 175.865C252.238 171.451 253.499 166.88 255.076 162.623C264.535 172.082 279.196 181.698 293.857 178.23C294.33 174.762 295.118 170.978 296.064 167.353C302.212 173.343 308.676 179.491 318.45 179.491C333.111 179.491 348.56 165.776 360.226 149.223C363.379 144.809 365.113 135.193 365.113 128.729C365.113 122.738 364.01 118.009 361.803 115.802L355.812 109.969C357.073 99.722 335.003 76.548 318.923 69.2962C307.73 64.2515 294.803 68.1927 283.61 75.2868C277.146 64.0939 261.224 65.355 250.977 71.8186C240.888 67.4044 223.704 65.0397 217.241 71.6609C199.9 106.186 195.485 115.644 192.648 123.842Z" fill="#1D2B36"/>
<path d="M292.754 167.825C292.754 190.684 335.791 211.336 348.088 214.804L353.763 208.814C355.655 198.094 358.335 188.477 363.222 175.55C368.897 181.225 376.149 183.117 382.455 183.117C386.553 183.117 390.967 182.014 393.963 180.595C408.939 173.343 425.335 156.948 434.636 141.971C441.099 131.567 439.838 124.63 436.212 121.004L431.798 116.59V115.329C431.798 98.9338 406.417 76.3903 397.904 70.5574C388.76 64.7244 377.252 64.8821 367.636 70.3997C358.808 66.4585 342.885 64.5668 336.579 70.0844C322.391 100.668 305.838 129.99 293.384 163.254C292.911 164.673 292.754 166.249 292.754 167.825Z" fill="#1D2B36"/>
<path d="M379.208 125.103C385.514 130.306 391.662 136.611 397.653 142.917L403.328 148.593C404.432 149.696 406.008 150.642 407.9 151.588C411.368 154.898 426.029 179.491 447.154 179.491C462.13 179.649 479.471 164.2 491.295 146.07C493.029 142.76 493.817 137.715 493.817 133.458C493.817 126.68 492.083 121.162 489.403 118.324L483.728 112.649C483.097 111.703 482.467 110.757 481.836 110.127C479.787 98.3032 458.82 76.548 445.104 71.0303H444.947L442.582 70.0844C441.479 67.2468 433.754 58.2609 430.759 56.2115C428.709 54.635 426.029 53.8468 422.876 53.6892C412.156 53.6892 401.751 65.1974 401.751 74.3409C401.751 76.2327 402.067 78.2821 402.697 80.0162C397.18 90.1056 387.563 105.24 379.05 114.541L379.208 125.103Z" fill="#1D2B36"/>
<path d="M446.204 117.694C443.524 153.164 478.522 181.698 512.731 180.753C536.221 178.545 560.341 155.371 560.341 137.242C560.341 134.72 559.079 129.202 551.828 114.383C553.089 97.6726 527.235 68.508 503.43 65.0397C501.854 64.8821 500.119 64.7244 498.543 64.7244C472.847 64.7244 448.254 89.6326 446.204 117.694Z" fill="#1D2B36"/>
<path d="M586.9 47.2256L576.023 67.4044C575.234 67.5621 574.289 67.7197 571.293 67.7197C565.618 72.4491 562.938 80.1738 564.987 87.7409C560.416 95.9385 556.317 103.821 554.898 106.816C549.696 118.167 545.754 134.404 553.479 146.07C561.204 156.948 582.171 176.023 592.576 179.334H592.733C612.281 182.96 626.785 166.091 639.554 146.07C643.968 138.818 643.653 122.581 637.505 115.96C641.604 110.757 644.126 100.668 640.658 95.6232L651.693 76.8633L625.839 50.6939C616.853 43.7574 596.201 37.9245 586.9 47.2256Z" fill="#1D2B36"/>
<path d="M646.799 64.7244C614.008 64.7244 581.06 109.339 599.189 139.922C609.279 156.475 637.182 182.802 661.302 180.753C684.319 178.703 699.926 160.416 709.542 145.282C713.641 137.873 714.744 126.68 708.281 119.743C702.133 112.807 700.872 111.546 699.61 110.442C692.359 97.515 683.215 81.5927 665.874 69.9268C660.356 66.4586 653.893 64.8821 646.799 64.7244Z" fill="#1D2B36"/>
<path d="M656.476 131.251C656.476 152.061 686.113 181.383 716.381 175.865C717.327 171.451 718.588 166.88 720.165 162.623C729.624 172.082 744.285 181.698 758.946 178.23C759.577 174.131 760.365 169.717 761.468 165.303C769.351 172.397 776.287 179.807 788.268 179.807C808.92 179.807 828.626 147.016 826.734 117.851L820.113 111.23C819.955 106.501 817.748 98.9338 814.122 94.835C807.974 87.4256 794.101 66.9315 772.819 66.9315C766.04 66.9315 756.581 69.9268 748.699 75.2868C742.393 64.2515 726.155 65.355 715.593 71.3456C708.814 68.035 699.828 66.7738 694.784 66.7738C689.897 66.7738 685.325 68.6656 682.33 71.6609L668.614 99.0915C664.988 106.186 660.259 115.487 657.737 123.842C656.948 126.364 656.476 129.044 656.476 131.251Z" fill="#1D2B36"/>
<path d="M869.471 62.8327C866.318 62.8327 863.323 63.3056 860.958 64.2515C838.73 71.6609 818.236 103.663 818.394 127.626C818.551 152.849 837.942 175.235 864.427 179.334C873.412 179.964 880.822 176.496 887.285 170.821C892.645 176.181 898.005 179.018 904.942 179.491C920.864 180.437 935.367 163.884 946.876 145.755C948.61 142.287 949.24 137.4 949.24 132.986C949.24 125.576 947.506 119.27 944.511 116.275L941.358 113.28L940.255 112.176L941.516 110.284L946.876 100.668L922.125 74.4986C915.031 68.8233 902.892 66.7738 895.325 66.7738C891.857 66.7738 888.704 67.5621 886.024 69.2962C880.979 64.7244 874.989 62.8327 869.471 62.8327Z" fill="#1D2B36"/>
<path d="M935.8 42.8115C932.489 50.0633 908.054 96.2538 903.64 104.451C897.334 117.221 891.501 135.981 902.379 148.593C908.842 156.002 926.183 173.658 939.583 179.334C959.132 182.487 974.266 165.934 986.72 146.07C988.769 142.76 989.557 137.4 989.557 132.355C989.557 125.261 987.666 119.586 984.828 116.748L979.468 111.546C987.193 96.0962 996.652 77.9668 1000.91 71.0303L976 45.0186C968.433 38.8704 955.979 36.821 948.569 36.821C943.525 36.821 939.268 38.0821 935.8 42.8115Z" fill="#1D2B36"/>
<path d="M917.344 175.865C917.659 180.595 919.078 185.009 921.128 188.635C930.429 204.715 954.706 227.731 976.304 228.204C1034.79 230.096 1041.57 122.738 1069 98.6185L1043.15 72.1338C1034 67.4044 1015.72 62.3597 1006.26 68.9809C999.793 63.3056 990.019 61.5715 981.506 64.0939C967.003 67.8774 943.829 91.6821 939.099 119.743C937.996 127.153 938.626 134.877 941.464 142.602C926.803 145.44 915.925 158.682 917.344 175.865Z" fill="#1D2B36"/>
<path d="M1055.17 65.5127C1033.89 70.3997 1018.6 98.6185 1018.6 119.743C1018.6 127.468 1020.65 134.877 1024.59 141.026C1031.21 151.588 1055.01 177.284 1074.25 180.595C1077.08 181.068 1079.29 181.225 1081.18 181.225C1097.42 181.225 1108.3 173.028 1115.71 163.569C1123.75 162.15 1131.79 157.421 1137.78 147.647C1141.09 141.814 1141.4 132.67 1136.2 127.468L1130.84 122.108V120.689C1130.84 99.8797 1108.3 77.3362 1095.37 68.508C1088.12 63.4633 1078.5 62.9903 1070.15 65.828C1065.58 64.7244 1060.37 64.4091 1055.17 65.5127Z" fill="#1D2B36"/>
<path d="M185.786 311.25C185.786 314.876 186.889 320.394 188.939 323.547C198.713 338.838 225.828 360.278 240.332 359.963L246.007 353.972C247.426 345.932 249.475 337.892 252.155 329.695C253.889 329.695 258.934 330.168 263.19 330.641C267.92 318.186 270.127 312.038 265.397 307.309L261.772 303.683C270.915 280.351 278.64 266.794 296.612 231.796L270.757 205.942C263.033 199.636 252.943 198.217 245.692 198.217C242.223 198.217 238.913 199.163 236.39 200.582C231.503 196.798 225.828 195.38 220.941 195.38C217.63 195.38 215.108 195.853 212.901 196.483C198.398 200.267 175.223 224.071 170.494 252.132C170.179 254.34 170.021 257.177 170.021 260.015C170.021 270.577 173.332 279.878 181.056 284.765L183.579 287.445C182.318 290.283 181.687 293.278 181.687 295.801C181.687 299.584 182.948 302.737 185.786 311.25Z" fill="#1D2B36"/>
<path d="M302.577 206.73C295.01 201.843 283.502 199.636 276.723 199.636C271.521 199.636 266.949 201.055 264.269 204.365L248.032 238.26C243.775 247.403 241.095 256.704 241.095 264.114C241.095 285.711 267.738 309.516 283.345 311.408C294.065 312.984 302.42 310.462 310.145 304.156L311.563 305.575C313.928 307.939 316.608 309.674 320.234 310.935C322.283 311.723 324.806 311.881 327.17 311.881C342.777 311.881 357.123 296.589 368.474 278.46C370.208 275.464 370.839 271.838 370.839 267.897C370.839 261.276 368.474 255.443 365.163 252.132L360.907 247.876C362.168 244.408 365.163 238.732 368.001 233.688L342.147 207.361C333.476 200.74 310.775 198.533 304.469 203.735L302.577 206.73Z" fill="#1D2B36"/>
<path d="M323.427 250.083C320.747 285.554 355.745 314.088 389.954 313.142C413.444 310.935 437.564 287.761 437.564 269.631C437.564 267.109 436.303 261.591 429.051 246.772C430.312 230.062 404.458 200.897 380.653 197.429C379.077 197.271 377.343 197.114 375.766 197.114C350.07 197.114 325.477 222.022 323.427 250.083Z" fill="#1D2B36"/>
<path d="M425.658 256.231C423.135 263.956 424.239 274.203 429.914 281.139C435.274 287.761 460.655 312.984 484.775 310.619C485.721 306.205 486.982 301.791 488.401 297.535C494.865 305.417 503.693 311.723 514.728 311.881C530.651 312.196 544.996 296.589 556.82 278.302C560.288 270.577 560.288 257.177 553.667 250.556L547.046 243.304C545.942 228.17 522.768 203.104 506.688 200.424C499.279 199.321 491.712 201.055 484.775 204.523C475.632 200.267 456.872 196.483 450.251 204.208C442.211 221.391 433.382 237.314 425.658 256.231Z" fill="#1D2B36"/>
<path d="M548.285 197.902C527.003 202.789 511.711 231.008 511.711 252.132C511.711 259.857 513.76 267.267 517.701 273.415C524.323 283.977 548.127 309.674 567.36 312.984C570.198 313.457 572.405 313.615 574.297 313.615C590.534 313.615 601.412 305.417 608.821 295.958C616.861 294.539 624.901 289.81 630.892 280.036C634.202 274.203 634.518 265.06 629.315 259.857L623.955 254.497V253.078C623.955 232.269 601.412 209.725 588.485 200.897C581.233 195.853 571.617 195.38 563.261 198.217C558.69 197.114 553.487 196.798 548.285 197.902Z" fill="#1D2B36"/>
<path d="M609.379 220.761C591.092 221.391 580.372 239.363 580.214 256.389C580.057 287.288 611.429 313.142 640.909 312.984C652.417 312.984 667.393 308.412 676.537 294.224C680.635 287.445 682.37 279.248 682.37 271.365C682.37 266.478 681.739 260.803 680.793 256.074C679.847 250.714 678.271 244.723 676.221 239.205C679.374 234.161 681.424 227.697 674.96 221.234L651.629 197.271C648.791 194.907 645.323 193.645 641.539 193.645C634.287 193.645 625.301 198.06 622.621 210.987L620.257 213.351C617.734 215.874 615.685 218.238 612.847 220.761C611.901 220.445 611.429 220.445 611.113 220.603C610.798 220.603 610.483 220.761 609.694 220.761H609.379Z" fill="#1D2B36"/>
<path d="M741.648 206.73C734.081 201.843 722.573 199.636 715.794 199.636C710.592 199.636 706.02 201.055 703.34 204.365L687.103 238.26C682.846 247.403 680.166 256.704 680.166 264.114C680.166 285.711 706.809 309.516 722.416 311.408C733.136 312.984 741.491 310.462 749.216 304.156L750.634 305.575C752.999 307.939 755.679 309.674 759.305 310.935C761.354 311.723 763.877 311.881 766.241 311.881C781.848 311.881 796.194 296.589 807.545 278.46C809.279 275.464 809.91 271.838 809.91 267.897C809.91 261.276 807.545 255.443 804.234 252.132L799.978 247.876C801.239 244.408 804.234 238.732 807.072 233.688L781.218 207.361C772.547 200.74 749.846 198.533 743.54 203.735L741.648 206.73Z" fill="#1D2B36"/>
<path d="M756.193 256.231C753.67 263.956 754.774 274.203 760.449 281.139C765.809 287.761 791.19 312.984 815.31 310.619C816.256 306.205 817.517 301.791 818.936 297.535C825.4 305.417 834.228 311.723 845.263 311.881C861.185 312.196 875.531 296.589 887.355 278.302C890.823 270.577 890.823 257.177 884.202 250.556L877.581 243.304C876.477 228.17 853.303 203.104 837.223 200.424C829.814 199.321 822.247 201.055 815.31 204.523C806.167 200.267 787.407 196.483 780.786 204.208C772.746 221.391 763.917 237.314 756.193 256.231Z" fill="#1D2B36"/>
<path d="M894.584 197.114C861.794 197.114 828.846 241.728 846.975 272.311C857.065 288.864 884.968 315.191 909.088 313.142C932.104 311.092 947.711 292.805 957.328 277.671C961.427 270.262 962.53 259.069 956.067 252.132C949.919 245.196 948.657 243.935 947.396 242.831C940.144 229.904 931.001 213.982 913.66 202.316C908.142 198.848 901.679 197.271 894.584 197.114Z" fill="#1D2B36"/>
<path d="M75.1475 161.992C116.136 156.317 137.103 120.689 133.162 66.9313C146.719 64.5666 154.444 59.3643 157.754 55.8961C173.046 40.289 161.853 20.2679 141.517 21.6867C129.22 22.4749 114.559 31.9337 112.51 52.1125C97.8486 45.4914 91.7004 24.209 107.78 18.5337C97.691 1.03495 59.5405 4.50318 60.644 33.9831C62.3781 55.2655 88.3898 66.7737 111.564 67.2466C111.406 76.5478 110.776 87.4254 107.307 100.037C101.632 121.162 84.4487 129.517 69.6299 126.679C50.5546 123.054 46.9287 101.614 58.7522 94.8348C62.851 92.1548 72.3099 92.4701 73.571 99.4066C74.2016 103.19 70.2604 107.131 62.5358 105.24C65.0581 114.068 72.3099 117.694 79.2463 117.063C102.736 115.329 104.155 81.9078 88.0745 69.6113C73.4134 55.5808 44.564 55.896 28.484 68.5078C13.3499 79.2278 4.20642 101.929 10.9852 124.157C16.9758 145.439 41.5687 164.357 75.1475 161.992ZM146.246 37.2937C149.399 39.0278 149.399 48.9596 132.846 52.9008C134.107 40.4467 143.093 35.5596 146.246 37.2937Z" fill="white"/>
<path d="M137.253 118.324C135.519 138.503 152.387 151.43 171.935 149.696C192.429 147.962 205.829 131.724 214.5 117.694C219.072 110.127 215.446 98.4607 212.135 101.771C201.258 115.959 188.015 132.039 174.615 132.039C166.575 132.039 160.427 127.31 162.319 115.959C168.782 127.941 196.371 125.261 203.149 98.6183C206.145 86.3219 201.415 74.9713 185.651 72.9219C162.476 69.9266 139.302 92.7854 137.253 118.324ZM183.128 91.9972C185.178 96.096 173.039 109.023 163.738 109.023C170.989 95.1501 181.079 88.3713 183.128 91.9972Z" fill="white"/>
<path d="M200.214 126.207C194.539 142.444 217.713 151.745 220.866 148.592C226.541 122.581 247.824 94.3619 253.026 94.9925C256.494 95.6231 242.779 120.847 240.887 129.99C237.419 143.548 255.075 151.272 263.746 148.75C267.53 126.522 283.294 93.2583 292.28 95.1501C295.275 95.9383 291.492 102.087 287.551 110.284C284.555 116.432 281.875 122.896 280.772 128.414C279.038 138.503 282.033 145.439 290.231 147.804C303.158 151.588 318.922 138.03 330.588 121.319C334.529 115.802 335.16 96.8842 332.165 99.4066C325.386 106.974 315.612 121.792 312.459 119.112C307.414 115.329 337.052 87.1101 315.612 76.3901C307.729 72.6066 290.231 74.9713 278.407 91.5242C279.668 84.7454 278.407 77.1784 269.421 74.9713C259.332 73.2372 250.504 80.1737 242.306 89.3172C248.612 77.6513 245.774 82.2231 247.351 78.9125C242.779 75.129 226.226 73.3949 224.019 75.9172C221.97 80.1737 212.668 97.9878 210.619 102.56C206.363 110.757 202.894 117.378 200.214 126.207Z" fill="white"/>
<path d="M322.864 183.905C324.913 172.712 327.593 162.623 331.219 152.534C342.569 125.891 368.739 89.9478 373.941 91.2089C378.986 90.736 369.842 112.649 358.019 127.152C343.988 132.039 337.367 136.769 343.515 145.124H343.831C350.609 153.637 362.118 152.849 367.32 150.169C372.522 147.804 377.567 143.39 382.454 137.715C391.282 132.197 398.534 124.315 404.682 114.383C409.727 106.343 407.678 98.6183 405.944 100.352C404.209 103.348 401.056 106.658 397.431 110.442C399.795 103.978 400.899 97.5148 400.741 91.8395C400.583 80.6466 393.174 74.0254 381.193 74.0254C374.887 74.0254 368.424 78.2819 362.591 85.0607L366.216 77.809C361.487 74.0254 345.249 72.449 343.042 74.656C326.647 108.865 313.09 133.301 301.739 163.884C298.428 174.762 315.139 185.639 322.864 183.905Z" fill="white"/>
<path d="M384.883 119.743C387.405 122.265 397.179 123.999 400.49 120.689C411.052 105.397 420.984 87.8984 421.772 86.3219C424.295 87.5831 427.92 89.1595 425.398 95.3078C420.826 104.451 410.264 120.216 409.003 129.675C407.742 139.764 411.525 148.435 423.506 148.435C435.803 148.908 450.779 134.877 461.342 118.482C463.864 113.437 462.603 98.9336 460.396 101.141C453.302 110.757 445.419 119.585 441.636 118.797C438.483 117.536 444.946 106.658 449.045 98.303C454.09 86.9525 448.73 81.2772 441.951 78.2819C438.01 76.5478 432.965 75.4443 427.132 75.129C429.655 68.1925 428.236 61.729 422.718 61.5713C413.732 61.5713 405.377 74.3407 412.156 79.3854C407.111 89.0019 395.76 108.077 384.883 119.743Z" fill="white"/>
<path d="M454.086 118.324C452.352 138.503 469.22 150.642 488.768 149.696C511.312 148.592 533.383 124.788 528.653 109.023C518.564 120.689 504.218 132.67 491.448 132.039C483.408 131.567 477.26 127.31 479.152 115.959C485.615 127.941 513.204 125.261 519.982 98.6183C522.978 86.3219 518.248 74.9713 502.484 72.9219C479.31 69.9266 456.135 92.7854 454.086 118.324ZM499.961 91.9972C502.011 96.096 489.872 109.023 480.571 109.023C487.823 95.1501 497.912 88.3713 499.961 91.9972Z" fill="white"/>
<path d="M593.679 51.4819C591.945 54.6349 587.057 64.2513 580.909 74.9713C578.229 75.129 575.865 75.4443 574.13 75.6019C569.559 79.3854 569.559 85.6913 571.451 86.0066C572.239 86.4795 573.185 86.3219 574.446 86.7948C568.928 96.8842 563.883 106.343 562.149 110.127C553.321 128.887 555.843 145.912 570.347 148.435C585.796 151.43 598.25 136.454 609.601 118.482C612.596 113.437 611.177 96.5689 609.128 98.6183C601.561 108.235 593.363 119.27 589.265 118.324C587.215 117.694 588.003 112.491 594.467 99.0913L600.142 87.7407C604.241 87.5831 607.236 87.2678 608.97 86.9525C611.493 84.4301 614.33 77.809 611.65 76.5478C609.916 76.0748 608.34 75.9172 606.606 75.4443C611.65 66.1431 616.065 58.4184 618.114 54.7925C613.7 51.1666 595.728 48.9596 593.679 51.4819Z" fill="white"/>
<path d="M602.342 118.324C600.608 138.503 617.476 151.43 637.024 149.696C657.518 147.962 670.918 131.724 679.589 117.694C684.161 110.127 680.535 98.4607 677.224 101.771C666.346 115.959 653.104 132.039 639.704 132.039C631.664 132.039 625.516 127.31 627.408 115.959C633.871 127.941 661.459 125.261 668.238 98.6183C671.234 86.3219 666.504 74.9713 650.739 72.9219C627.565 69.9266 604.391 92.7854 602.342 118.324ZM648.217 91.9972C650.266 96.096 638.128 109.023 628.827 109.023C636.078 95.1501 646.168 88.3713 648.217 91.9972Z" fill="white"/>
<path d="M665.303 126.207C659.628 142.444 682.802 151.745 685.955 148.592C691.63 122.581 712.913 94.3619 718.115 94.9925C721.583 95.6231 707.868 120.847 705.976 129.99C702.508 143.548 720.164 151.272 728.835 148.75C732.619 126.522 748.383 93.2583 757.369 95.1501C760.364 95.9383 756.581 102.087 752.64 110.284C748.068 119.585 741.92 139.922 755.004 146.543C774.71 156.159 798.042 132.828 796.781 112.334C790.002 119.901 782.435 124.315 779.913 120.058C774.868 112.491 802.141 87.1101 780.701 76.3901C772.818 72.6066 755.32 74.9713 743.496 91.5242C744.757 84.7454 743.496 77.1784 734.51 74.9713C724.421 73.2372 715.593 80.1737 707.395 89.3172C713.701 77.6513 710.863 82.2231 712.44 78.9125C707.868 75.129 691.315 73.3949 689.108 75.9172C687.059 80.1737 677.757 97.9878 675.708 102.56C671.452 110.757 667.983 117.378 665.303 126.207Z" fill="white"/>
<path d="M885.551 82.8537C881.452 70.3996 869.786 69.4537 863.795 71.6607C851.657 74.1831 831.005 95.6231 826.748 120.847C824.699 133.931 828.167 147.016 841.567 148.277C851.341 149.065 859.066 142.602 866.318 133.616C867.421 141.025 871.678 147.647 881.925 148.435C894.221 149.223 906.675 134.404 916.922 118.167C919.287 113.28 918.026 96.8842 915.819 99.0913C908.567 108.865 899.581 121.95 895.64 121.004C893.275 120.374 894.064 116.59 898.005 108.235C905.099 92.7854 910.301 85.2184 913.927 79.0701C909.355 75.2866 891.857 73.2372 889.65 75.9172L885.551 82.8537ZM854.652 124.63C845.035 121.477 868.998 80.1737 881.137 90.4207C878.614 94.9925 875.934 99.8795 873.57 104.767C867.421 114.698 859.381 126.837 854.652 124.63Z" fill="white"/>
<path d="M943.209 45.8067C939.898 53.0584 915.148 99.7219 910.734 107.92C899.856 129.832 903.009 145.912 917.355 148.435C932.804 151.43 945.574 136.454 956.766 118.482C959.762 113.437 958.185 96.5689 956.136 98.6183C948.569 108.235 941.002 119.27 936.903 118.324C934.854 117.694 935.642 112.491 942.105 99.0913C949.672 83.6419 963.861 55.4231 967.644 49.1172C963.23 45.4914 945.258 43.2843 943.209 45.8067Z" fill="white"/>
<path d="M961.8 148.277C971.101 149.065 979.456 141.656 986.866 131.567C979.299 150.484 971.259 167.037 962.904 167.037C956.598 167.037 955.967 159.785 963.692 155.844C944.932 141.656 923.492 154.741 925.226 175.235C926.487 189.581 938.784 197.148 952.656 197.148C972.993 197.936 989.546 179.806 1000.9 152.376C1021.08 103.19 1024.86 93.1007 1034.63 77.809C1029.27 74.9713 1013.04 71.976 1010.83 75.4443C1009.57 77.1784 1007.68 80.489 1005.94 83.169C1002.16 70.5572 990.176 69.6113 984.028 71.6607C971.889 74.1831 951.238 95.6231 946.981 120.847C944.932 133.931 948.4 147.016 961.8 148.277ZM974.885 124.63C965.584 122.108 988.442 82.0654 1001.21 91.0513C994.118 102.56 981.033 126.364 974.885 124.63Z" fill="white"/>
<path d="M1056.91 73.2372C1047.29 75.2866 1036.57 86.4795 1031.05 99.2489C1022.22 119.27 1025.06 145.439 1051.7 149.696C1069.67 152.218 1081.03 142.917 1088.12 132.985C1095.21 132.512 1102.31 128.887 1107.83 120.058C1110.82 115.014 1107.98 106.816 1105.93 108.865C1102.94 112.964 1099.47 116.117 1095.84 118.324L1096.79 115.329C1104.36 90.2631 1096.79 71.5031 1080.08 71.976C1076.77 71.976 1073.62 72.7643 1070.94 74.1831C1066.99 72.9219 1061.79 72.1337 1056.91 73.2372ZM1057.06 129.202C1046.97 127.468 1049.65 111.072 1057.54 97.3572C1057.38 99.4066 1057.54 101.614 1057.85 103.978C1058.32 111.388 1062.11 119.901 1067.63 125.418C1064 128.414 1060.22 129.832 1057.06 129.202ZM1076.14 86.6372C1082.76 85.376 1083.71 93.8889 1080.71 105.87C1079.92 108.392 1078.98 110.915 1077.71 113.28C1069.67 105.555 1070.31 88.3713 1076.14 86.6372Z" fill="white"/>
<path d="M215.108 329.064C216.842 318.975 219.522 308.885 223.148 298.638C227.089 298.48 230.715 298.48 234.341 298.953C235.602 295.643 238.597 289.652 235.917 288.233C233.237 287.76 230.399 287.445 227.246 287.445C237.966 259.699 252.155 232.742 263.505 210.198C258.776 206.415 242.538 204.838 240.331 207.045C239.07 209.41 237.966 211.932 236.863 214.297C232.134 202.789 221.571 202.316 215.423 204.05C203.284 206.572 182.632 228.012 178.376 253.236C176.327 266.321 179.795 279.405 193.195 280.666C199.343 281.139 204.23 278.617 208.644 273.73C206.279 278.617 204.388 283.189 202.496 287.76C198.239 287.76 194.614 287.76 192.091 287.288C187.677 291.229 187.204 296.746 188.938 297.535C190.83 298.638 193.983 298.953 197.767 299.111C196.348 302.422 195.087 305.732 193.983 309.043C190.672 319.92 207.383 330.798 215.108 329.064ZM206.279 257.019C196.821 253.866 222.044 209.883 234.656 218.711L227.246 234.003V233.845C220.941 244.408 211.639 259.069 206.279 257.019Z" fill="white"/>
<path d="M310.459 209.095C306.676 216.819 301.946 226.121 297.69 235.579C290.438 247.088 284.763 256.546 279.876 255.601C276.723 254.812 278.299 249.295 281.452 242.201C285.236 233.372 292.172 218.711 295.483 211.617C291.069 207.991 272.939 206.099 270.89 208.622L255.125 241.57C245.824 260.803 246.77 277.986 260.958 280.509C272.466 282.243 281.452 276.883 289.492 266.951C289.965 273.257 292.645 277.829 299.109 280.193C312.982 283.977 327.17 269 338.521 250.871C341.516 245.826 338.521 230.377 336.471 232.426C329.219 242.201 323.702 249.925 319.603 249.137C314.401 245.826 334.106 215.716 335.368 212.405C330.953 208.779 312.509 206.572 310.459 209.095Z" fill="white"/>
<path d="M331.309 250.713C329.575 270.892 346.443 283.031 365.992 282.085C388.535 280.982 410.606 257.177 405.876 241.412C395.787 253.078 381.441 265.059 368.672 264.429C360.632 263.956 354.483 259.699 356.375 248.349C362.839 260.33 390.427 257.65 397.206 231.008C400.201 218.711 395.472 207.361 379.707 205.311C356.533 202.316 333.359 225.175 331.309 250.713ZM377.185 224.386C379.234 228.485 367.095 241.412 357.794 241.412C365.046 227.539 375.135 220.761 377.185 224.386Z" fill="white"/>
<path d="M433.382 257.965C427.549 274.833 445.521 283.031 454.98 280.824C461.758 251.817 481.937 224.859 487.14 225.648C488.401 225.805 488.874 227.855 485.563 233.53C480.676 241.728 477.05 249.768 475.631 254.812C472.163 266.793 475.001 280.824 491.396 280.824C503.692 281.297 516.147 267.266 526.709 250.871C529.231 245.669 527.182 230.219 525.133 232.269C517.723 241.728 511.26 251.659 506.845 251.659C502.431 251.344 511.26 235.895 514.097 230.692C519.772 220.445 516.304 207.518 502.747 207.518C492.5 207.676 483.356 213.351 476.42 219.815C482.725 208.149 479.257 214.612 480.991 211.302C476.42 207.518 459.078 205.784 457.029 208.306C454.98 212.405 445.206 232.584 442.683 237.156C439.688 242.673 435.116 253.551 433.382 257.965Z" fill="white"/>
<path d="M550.019 205.626C540.402 207.676 529.682 218.869 524.164 231.638C515.336 251.659 518.174 277.829 544.816 282.085C562.788 284.608 574.138 275.306 581.233 265.375C588.327 264.902 595.421 261.276 600.938 252.448C603.934 247.403 601.096 239.205 599.047 241.255C596.051 245.353 592.583 248.506 588.957 250.713L589.903 247.718C597.47 222.652 589.903 203.892 573.193 204.365C569.882 204.365 566.729 205.154 564.049 206.572C560.108 205.311 554.906 204.523 550.019 205.626ZM550.176 261.591C540.087 259.857 542.767 243.462 550.649 229.746C550.491 231.796 550.649 234.003 550.964 236.368C551.437 243.777 555.221 252.29 560.739 257.808C557.113 260.803 553.329 262.222 550.176 261.591ZM569.251 219.026C575.873 217.765 576.818 226.278 573.823 238.259C573.035 240.782 572.089 243.304 570.828 245.669C562.788 237.944 563.419 220.761 569.251 219.026Z" fill="white"/>
<path d="M609.694 228.643C596.136 229.116 587.308 242.831 588.096 255.916C588.569 269.631 599.762 281.928 617.261 281.928C626.878 281.928 639.174 278.617 646.583 266.636C652.574 257.335 651.943 244.565 649.894 233.688C648.79 227.382 646.899 221.076 644.219 214.612C646.741 211.617 650.052 206.73 646.268 202.946C642.485 199.951 631.922 200.739 630.188 214.455C625.932 218.869 620.572 224.229 615.054 229.274C613.477 228.801 611.743 228.643 609.694 228.643ZM627.508 243.304C627.508 239.993 626.405 236.998 624.198 234.476C626.562 232.111 628.927 229.904 631.292 227.382C632.395 235.106 632.71 244.092 628.927 250.241C623.094 259.069 616 255.758 614.739 251.659C613.005 246.142 618.522 239.521 627.508 243.304Z" fill="white"/>
<path d="M749.53 209.095C745.747 216.819 741.018 226.121 736.761 235.579C729.509 247.088 723.834 256.546 718.947 255.601C715.794 254.812 717.37 249.295 720.523 242.201C724.307 233.372 731.243 218.711 734.554 211.617C730.14 207.991 712.01 206.099 709.961 208.622L694.196 241.57C684.895 260.803 685.841 277.986 700.029 280.509C711.538 282.243 720.523 276.883 728.563 266.951C729.036 273.257 731.716 277.829 738.18 280.193C752.053 283.977 766.241 269 777.592 250.871C780.587 245.826 777.592 230.377 775.542 232.426C768.29 242.201 762.773 249.925 758.674 249.137C753.472 245.826 773.177 215.716 774.439 212.405C770.024 208.779 751.58 206.572 749.53 209.095Z" fill="white"/>
<path d="M763.917 257.965C758.084 274.833 776.056 283.031 785.515 280.824C792.293 251.817 812.472 224.859 817.674 225.648C818.936 225.805 819.409 227.855 816.098 233.53C811.211 241.728 807.585 249.768 806.166 254.812C802.698 266.793 805.536 280.824 821.931 280.824C834.227 281.297 846.682 267.266 857.244 250.871C859.766 245.669 857.717 230.219 855.667 232.269C848.258 241.728 841.794 251.659 837.38 251.659C832.966 251.344 841.794 235.895 844.632 230.692C850.307 220.445 846.839 207.518 833.282 207.518C823.034 207.676 813.891 213.351 806.955 219.815C813.26 208.149 809.792 214.612 811.526 211.302C806.955 207.518 789.613 205.784 787.564 208.306C785.515 212.405 775.74 232.584 773.218 237.156C770.223 242.673 765.651 253.551 763.917 257.965Z" fill="white"/>
<path d="M850.128 250.713C848.393 270.892 865.262 283.819 884.81 282.085C905.304 280.351 918.704 264.113 927.375 250.083C931.946 242.516 928.32 230.85 925.01 234.161C914.132 248.349 900.89 264.429 887.49 264.429C879.45 264.429 873.302 259.699 875.193 248.349C881.657 260.33 909.245 257.65 916.024 231.008C919.019 218.711 914.29 207.361 898.525 205.311C875.351 202.316 852.177 225.175 850.128 250.713ZM896.003 224.386C898.052 228.485 885.913 241.412 876.612 241.412C883.864 227.539 893.953 220.761 896.003 224.386Z" fill="white"/>
</svg>
