<svg width="168" height="168" viewBox="0 0 168 168" fill="none" xmlns="http://www.w3.org/2000/svg">
<path opacity="0.55" fill-rule="evenodd" clip-rule="evenodd" d="M55.5341 27.7269C55.5341 13.6427 45.0879 2.08925 31.5627 0.218689C32.9922 0.218689 34.4217 0.218689 35.7412 0.328722C42.7787 0.328722 49.8162 0.878886 56.7437 1.97922C56.7608 1.97922 56.7753 1.98188 56.7879 1.98679C67.2172 3.63876 77.2083 6.60684 86.9801 10.672C102.595 17.2739 116.669 26.7368 128.765 38.8404C140.861 50.944 150.317 65.0282 156.915 80.6529C161.078 90.2987 163.931 100.272 165.583 110.573C165.627 110.613 165.671 110.653 165.716 110.693C166.815 117.625 167.365 124.667 167.365 131.819V131.82C167.365 133.58 167.365 135.34 167.255 137.101C166.045 122.796 154.06 111.683 139.545 111.683H109.086C108.106 107.871 106.803 104.274 105.177 100.679H105.124C101.385 92.3164 96.1069 84.7241 89.5092 78.1221C82.8016 71.4101 74.9944 66.1285 66.6374 62.3874V62.276C63.0096 60.6261 59.3818 59.3061 55.5341 58.3161V27.7269ZM109.086 100.68V100.679H139.541C139.678 100.679 139.815 100.68 139.952 100.681C139.853 100.68 139.754 100.68 139.655 100.68H109.086Z" fill="#00B8AD"/>
<path d="M167.25 137.101C166.04 122.907 154.055 111.683 139.54 111.683H109.081H64.8767C59.7086 111.683 55.6401 107.502 55.6401 102.441V58.4275V27.8383C55.6401 13.7541 45.1938 2.20066 31.6686 0.330099C30.3491 0.110033 29.0296 0 27.82 0C25.071 0 22.432 0.440131 19.9029 1.10033C8.35701 4.51135 0 15.1845 0 27.8383V64.6993V139.522C0 154.926 12.4255 167.36 27.82 167.36H103.033H139.54C152.625 167.36 163.731 158.227 166.59 146.014C167.03 143.923 167.36 141.832 167.36 139.632C167.36 138.751 167.25 137.871 167.25 137.101Z" fill="#00B8AD"/>
</svg>
